<svg width="2255" height="2081" xmlns="http://www.w3.org/2000/svg" xmlns:xlink="http://www.w3.org/1999/xlink" xml:space="preserve" overflow="hidden"><g transform="translate(-1058 -325)"><g><path d="M1831.28 406.213C1846.21 397.836 1865.1 403.147 1873.48 418.076L1934.15 526.203C1942.53 541.133 1937.22 560.027 1922.29 568.405L1869.16 598.22 1925.65 698.891 1956.99 683.329C2120.95 612.038 2299.19 603.451 2462.14 649.258L2479.21 654.949 2528.37 552.829 2489.49 534.11C2478.57 528.851 2473.97 515.731 2479.23 504.805L2517.32 425.679C2522.58 414.753 2535.7 410.16 2546.63 415.42L2717.45 497.654C2728.37 502.913 2732.97 516.034 2727.71 526.959L2689.62 606.085C2684.36 617.011 2671.24 621.604 2660.31 616.344L2621.43 597.626 2575.93 692.139 2597.37 701.647C2711.22 758.804 2811.72 845.221 2886.39 957.391L2901.77 982.529 2966.23 946.357 2944.31 907.293C2938.15 896.318 2942.06 882.426 2953.03 876.267L3032.53 831.658C3043.5 825.498 3057.4 829.404 3063.55 840.38L3159.86 1011.99C3166.02 1022.97 3162.11 1036.86 3151.13 1043.02L3071.64 1087.63C3060.66 1093.79 3046.77 1089.88 3040.61 1078.91L3018.69 1039.85 2951.62 1077.49 2977.92 1147.39C3004.7 1231.11 3016.09 1317.34 3013.14 1402.39L3011.57 1422.84 3117.75 1445.06 3130.23 1385.43C3133.73 1368.67 3150.16 1357.93 3166.92 1361.43L3288.27 1386.83C3305.03 1390.33 3315.77 1406.76 3312.27 1423.52L3257.45 1685.51C3253.94 1702.27 3237.51 1713.01 3220.76 1709.5L3099.4 1684.11C3082.64 1680.6 3071.9 1664.17 3075.41 1647.42L3087.88 1587.78 2988.53 1567 2982.75 1590.2C2962.61 1658.71 2932.81 1724.41 2893.98 1785.06L2883.72 1799.52 2940.87 1849.47C2952.64 1859.76 2952.54 1879.14 2940.64 1892.75L2754.58 2105.62C2742.68 2119.23 2723.49 2121.93 2711.72 2111.64L2626.45 2037.11 2626.21 2036.76 2566.95 2066.65C2423.94 2131 2269.59 2147.22 2123.71 2120.88L2055.71 2105.22 2037.32 2158.03 2103.81 2181.19C2122.49 2187.7 2132.36 2208.12 2125.85 2226.81L2078.72 2362.12C2072.21 2380.8 2051.79 2390.67 2033.1 2384.16L1740.99 2282.4C1722.3 2275.9 1712.43 2255.47 1718.94 2236.79L1766.08 2101.48C1772.59 2082.79 1793.01 2072.93 1811.69 2079.43L1878.18 2102.6 1899.36 2041.82 1854.27 2016.4C1751.12 1951.46 1662.24 1860.6 1598.4 1746.83 1542.54 1647.29 1511.63 1540.51 1503.66 1433.73L1501.82 1376.1 1309.71 1341.46 1296.41 1415.24C1292.67 1435.97 1272.83 1449.75 1252.1 1446.01L1101.96 1418.94C1081.22 1415.2 1067.45 1395.36 1071.19 1374.63L1129.63 1050.49C1133.37 1029.76 1153.2 1015.98 1173.94 1019.72L1324.08 1046.79C1344.81 1050.53 1358.59 1070.37 1354.85 1091.1L1341.55 1164.88 1523.78 1197.74 1527.51 1181.12C1565.88 1038.07 1646.02 906.323 1762.35 805.687L1801.31 775.272 1742 669.576 1688.86 699.392C1673.94 707.769 1655.04 702.458 1646.66 687.528L1585.99 579.402C1577.61 564.472 1582.92 545.577 1597.85 537.2Z" fill="#D9D9D9" fill-rule="evenodd" fill-opacity="1"/><path d="M3054.46 855.87 3150.77 1027.49C3156.92 1038.46 3153.02 1052.35 3142.04 1058.51L3062.55 1103.12C3051.57 1109.28 3037.68 1105.38 3031.52 1094.4L3009.6 1055.34 2886.76 1124.27C2878.15 1129.1 2867.26 1126.04 2862.43 1117.43L2827.46 1055.11C2822.63 1046.5 2825.69 1035.61 2834.29 1030.78L2957.14 961.847 2935.22 922.784C2929.06 911.808 2932.97 897.917 2943.94 891.757L3023.44 847.149C3034.41 840.989 3048.3 844.894 3054.46 855.87Z" fill="#2E4434" fill-rule="evenodd" fill-opacity="1"/><path d="M1589.31 1762.32C1385.01 1398.27 1514.53 937.528 1878.59 733.237 2242.65 528.946 2703.39 658.463 2907.68 1022.52 3111.97 1386.58 2982.45 1847.32 2618.39 2051.61 2254.33 2255.9 1793.6 2126.38 1589.31 1762.32Z" fill="#2E4434" fill-rule="evenodd" fill-opacity="1"/><path d="M1575.32 1656.38C1406.49 1355.52 1513.53 974.758 1814.39 805.928 2115.26 637.099 2496.02 744.133 2664.85 1045 2833.68 1345.86 2726.64 1726.62 2425.78 1895.45 2124.91 2064.28 1744.15 1957.25 1575.32 1656.38Z" fill="#56805F" fill-rule="evenodd" fill-opacity="1"/><path d="M1652.41 1597.73C1511.06 1345.84 1600.68 1027.06 1852.56 885.711 2104.45 744.365 2423.23 833.976 2564.58 1085.86 2705.92 1337.75 2616.31 1656.53 2364.42 1797.88 2112.54 1939.22 1793.76 1849.61 1652.41 1597.73Z" fill="#2E4434" fill-rule="evenodd" fill-opacity="1"/><path d="M1762.5 1514.24C1658.14 1328.27 1724.3 1092.92 1910.28 988.559 2096.25 884.201 2331.6 950.362 2435.96 1136.33 2540.32 1322.3 2474.16 1557.66 2288.19 1662.02 2102.22 1766.38 1866.86 1700.22 1762.5 1514.24Z" fill="#56805F" fill-rule="evenodd" fill-opacity="1"/><path d="M1858.42 1448.39C1789.25 1325.13 1833.1 1169.14 1956.36 1099.97 2079.62 1030.8 2235.61 1074.65 2304.78 1197.91 2373.95 1321.17 2330.1 1477.16 2206.84 1546.33 2083.58 1615.5 1927.59 1571.65 1858.42 1448.39Z" fill="#2E4434" fill-rule="evenodd" fill-opacity="1"/><path d="M2537.54 430.91 2708.36 513.144C2719.28 518.403 2723.88 531.524 2718.62 542.449L2680.52 621.576C2675.27 632.501 2662.14 637.094 2651.22 631.835L2612.34 613.117 2553.47 735.393C2549.35 743.958 2539.06 747.559 2530.5 743.436L2468.46 713.571C2459.89 709.447 2456.29 699.161 2460.42 690.595L2519.28 568.319 2480.4 549.601C2469.47 544.341 2464.88 531.221 2470.14 520.295L2508.23 441.169C2513.49 430.243 2526.61 425.651 2537.54 430.91Z" fill="#2E4434" fill-rule="evenodd" fill-opacity="1"/><path d="M1588.76 552.69 1822.19 421.703C1837.11 413.326 1856.01 418.637 1864.39 433.566L1925.06 541.693C1933.44 556.623 1928.13 575.518 1913.2 583.895L1860.07 613.71 1953.83 780.801C1960.4 792.506 1956.23 807.32 1944.53 813.888L1859.76 861.459C1848.05 868.027 1833.24 863.863 1826.67 852.158L1732.91 685.067 1679.77 714.882C1664.84 723.26 1645.95 717.948 1637.57 703.019L1576.9 594.892C1568.52 579.962 1573.83 561.068 1588.76 552.69Z" fill="#56805F" fill-rule="evenodd" fill-opacity="1"/><path d="M1062.1 1390.12 1120.54 1065.98C1124.28 1045.25 1144.11 1031.48 1164.85 1035.21L1314.99 1062.29C1335.72 1066.02 1349.5 1085.86 1345.76 1106.59L1332.46 1180.37 1564.48 1222.21C1580.74 1225.14 1591.54 1240.69 1588.61 1256.94L1567.38 1374.66C1564.45 1390.91 1548.9 1401.71 1532.64 1398.78L1300.62 1356.95 1287.32 1430.73C1283.58 1451.46 1263.74 1465.24 1243.01 1461.5L1092.87 1434.43C1072.13 1430.69 1058.36 1410.85 1062.1 1390.12Z" fill="#56805F" fill-rule="evenodd" fill-opacity="1"/><path d="M3303.18 1439.01 3248.36 1701C3244.85 1717.76 3228.42 1728.5 3211.67 1724.99L3090.31 1699.6C3073.55 1696.09 3062.81 1679.67 3066.32 1662.91L3078.79 1603.28 2891.25 1564.03C2878.12 1561.28 2869.69 1548.41 2872.44 1535.27L2892.35 1440.12C2895.1 1426.98 2907.98 1418.56 2921.12 1421.31L3108.66 1460.55 3121.14 1400.92C3124.64 1384.16 3141.07 1373.42 3157.83 1376.93L3279.18 1402.32C3295.94 1405.83 3306.68 1422.25 3303.18 1439.01Z" fill="#2E4434" fill-rule="evenodd" fill-opacity="1"/><path d="M2024.01 2399.65 1731.9 2297.9C1713.21 2291.39 1703.34 2270.96 1709.85 2252.28L1756.99 2116.97C1763.5 2098.29 1783.92 2088.42 1802.6 2094.92L1869.09 2118.09 1941.93 1908.98C1947.04 1894.34 1963.05 1886.6 1977.7 1891.7L2083.78 1928.66C2098.43 1933.76 2106.17 1949.77 2101.07 1964.42L2028.23 2173.52 2094.72 2196.68C2113.4 2203.19 2123.27 2223.61 2116.76 2242.3L2069.62 2377.61C2063.12 2396.29 2042.69 2406.16 2024.01 2399.65Z" fill="#56805F" fill-rule="evenodd" fill-opacity="1"/><path d="M2935.27 1906.97 2749.21 2119.84C2737.31 2133.45 2718.12 2136.15 2706.35 2125.86L2621.08 2051.33C2609.31 2041.04 2609.42 2021.66 2621.32 2008.04L2663.67 1959.59 2531.91 1844.42C2522.68 1836.36 2522.76 1821.16 2532.09 1810.49L2599.66 1733.18C2608.99 1722.51 2624.03 1720.4 2633.26 1728.47L2765.02 1843.63 2807.38 1795.18C2819.27 1781.57 2838.47 1778.87 2850.24 1789.16L2935.5 1863.69C2947.27 1873.98 2947.17 1893.36 2935.27 1906.97Z" fill="#56805F" fill-rule="evenodd" fill-opacity="1"/><path d="M1978.48 1381.02C1947.77 1326.29 1967.24 1257.03 2021.96 1226.32 2076.69 1195.61 2145.95 1215.08 2176.66 1269.81 2207.37 1324.54 2187.9 1393.8 2133.17 1424.51 2078.45 1455.22 2009.19 1435.75 1978.48 1381.02Z" fill="#56805F" fill-rule="evenodd" fill-opacity="1"/><path d="M2083.07 1340.48 2234.05 987.165 2320.52 1097.86 2809.84 715.623 3054.03 346.624 3140.5 457.32 3050.66 527.502C3058.28 521.55 3069.04 522.595 3074.7 529.837L3115.67 582.284C3121.33 589.526 3119.74 600.221 3112.12 606.173L3201.96 535.991 3288.85 647.221 2871.29 794.295 2381.98 1176.53 2462.42 1279.51Z" stroke="#D9D9D9" stroke-width="20.625" stroke-linecap="butt" stroke-linejoin="miter" stroke-miterlimit="8" stroke-opacity="1" fill="#EB5B00" fill-rule="evenodd" fill-opacity="1"/></g></g></svg>