<svg width="3291" height="2566" xmlns="http://www.w3.org/2000/svg" xmlns:xlink="http://www.w3.org/1999/xlink" xml:space="preserve" overflow="hidden"><g transform="translate(-554 -110)"><g><path d="M1831.28 470.084C1846.21 461.707 1865.1 467.018 1873.48 481.947L1934.15 590.074C1942.53 605.004 1937.22 623.898 1922.29 632.276L1869.16 662.091 1925.65 762.762 1956.99 747.201C2120.95 675.909 2299.19 667.322 2462.14 713.129L2479.21 718.82 2528.37 616.7 2489.49 597.981C2478.57 592.722 2473.97 579.602 2479.23 568.676L2517.32 489.55C2522.58 478.624 2535.7 474.031 2546.63 479.291L2717.45 561.525C2728.37 566.784 2732.97 579.905 2727.71 590.83L2689.62 669.957C2684.36 680.882 2671.24 685.475 2660.31 680.215L2621.43 661.497 2575.93 756.01 2597.37 765.518C2711.22 822.675 2811.72 909.092 2886.39 1021.26L2901.77 1046.4 2966.23 1010.23 2944.31 971.164C2938.15 960.189 2942.06 946.297 2953.03 940.138L3032.53 895.529C3043.5 889.37 3057.4 893.275 3063.55 904.251L3159.86 1075.87C3166.02 1086.84 3162.11 1100.73 3151.13 1106.89L3071.64 1151.5C3060.66 1157.66 3046.77 1153.76 3040.61 1142.78L3018.69 1103.72 2951.62 1141.36 2977.92 1211.26C3004.7 1294.98 3016.09 1381.21 3013.14 1466.26L3011.57 1486.72 3117.75 1508.93 3130.23 1449.3C3133.73 1432.54 3150.16 1421.8 3166.92 1425.31L3288.27 1450.7C3305.03 1454.21 3315.77 1470.63 3312.27 1487.39L3257.45 1749.38C3253.94 1766.14 3237.51 1776.88 3220.76 1773.37L3099.4 1747.98C3082.64 1744.47 3071.9 1728.05 3075.41 1711.29L3087.88 1651.66 2988.53 1630.87 2982.75 1654.07C2962.61 1722.58 2932.81 1788.28 2893.98 1848.94L2883.72 1863.39 2940.87 1913.34C2952.64 1923.63 2952.54 1943.01 2940.64 1956.63L2754.58 2169.49C2742.68 2183.1 2723.49 2185.8 2711.72 2175.51L2626.45 2100.98 2626.21 2100.63 2566.95 2130.53C2423.94 2194.87 2269.59 2211.09 2123.71 2184.75L2055.71 2169.1 2037.32 2221.9 2103.81 2245.06C2122.49 2251.57 2132.36 2271.99 2125.85 2290.68L2078.72 2425.99C2072.21 2444.67 2051.79 2454.54 2033.1 2448.04L1740.99 2346.28C1722.3 2339.77 1712.43 2319.34 1718.94 2300.66L1766.08 2165.35C1772.59 2146.67 1793.01 2136.8 1811.69 2143.3L1878.18 2166.47 1899.36 2105.69 1854.27 2080.27C1751.12 2015.34 1662.24 1924.47 1598.4 1810.7 1542.54 1711.16 1511.63 1604.38 1503.66 1497.6L1501.82 1439.97 1309.71 1405.33 1296.41 1479.11C1292.67 1499.84 1272.83 1513.62 1252.1 1509.88L1101.96 1482.81C1081.22 1479.07 1067.45 1459.23 1071.19 1438.5L1129.63 1114.36C1133.37 1093.63 1153.2 1079.86 1173.94 1083.59L1324.08 1110.67C1344.81 1114.4 1358.59 1134.24 1354.85 1154.97L1341.55 1228.75 1523.78 1261.61 1527.51 1244.99C1565.88 1101.94 1646.02 970.194 1762.35 869.558L1801.31 839.143 1742 733.447 1688.86 763.263C1673.94 771.641 1655.04 766.329 1646.66 751.399L1585.99 643.273C1577.61 628.343 1582.92 609.448 1597.85 601.071Z" fill="#D9D9D9" fill-rule="evenodd" fill-opacity="1"/><path d="M1737.64 113 3841 113 3841 2676 559 2676 559 1560.63Z" fill="#262626" fill-rule="evenodd" fill-opacity="1"/><path d="M3054.46 978.29 3150.77 1149.9C3156.92 1160.88 3153.02 1174.77 3142.04 1180.93L3062.55 1225.54C3051.57 1231.7 3037.68 1227.79 3031.52 1216.82L3009.6 1177.76 2886.76 1246.69C2878.15 1251.52 2867.26 1248.46 2862.43 1239.85L2827.46 1177.53C2822.63 1168.92 2825.69 1158.03 2834.29 1153.2L2957.14 1084.27 2935.22 1045.2C2929.06 1034.23 2932.97 1020.34 2943.94 1014.18L3023.44 969.568C3034.41 963.409 3048.3 967.314 3054.46 978.29Z" fill="#2E4434" fill-rule="evenodd" fill-opacity="1"/><path d="M1589.31 1884.74C1385.01 1520.69 1514.53 1059.95 1878.59 855.657 2242.65 651.366 2703.39 780.882 2907.68 1144.94 3111.97 1509 2982.45 1969.74 2618.39 2174.03 2254.33 2378.32 1793.6 2248.8 1589.31 1884.74Z" fill="#2E4434" fill-rule="evenodd" fill-opacity="1"/><path d="M1575.32 1778.8C1406.5 1477.94 1513.53 1097.18 1814.39 928.348 2115.26 759.518 2496.02 866.553 2664.85 1167.42 2833.68 1468.28 2726.64 1849.04 2425.78 2017.87 2124.92 2186.7 1744.15 2079.66 1575.32 1778.8Z" fill="#56805F" fill-rule="evenodd" fill-opacity="1"/><path d="M1652.41 1720.14C1511.06 1468.26 1600.68 1149.48 1852.56 1008.13 2104.45 866.784 2423.23 956.395 2564.58 1208.28 2705.92 1460.17 2616.31 1778.95 2364.42 1920.3 2112.54 2061.64 1793.76 1972.03 1652.41 1720.14Z" fill="#2E4434" fill-rule="evenodd" fill-opacity="1"/><path d="M1762.5 1636.66C1658.14 1450.69 1724.3 1215.34 1910.28 1110.98 2096.25 1006.62 2331.6 1072.78 2435.96 1258.75 2540.32 1444.72 2474.16 1680.08 2288.19 1784.44 2102.22 1888.8 1866.86 1822.63 1762.5 1636.66Z" fill="#56805F" fill-rule="evenodd" fill-opacity="1"/><path d="M1858.42 1570.81C1789.25 1447.55 1833.1 1291.56 1956.36 1222.39 2079.62 1153.22 2235.61 1197.07 2304.78 1320.33 2373.95 1443.59 2330.1 1599.58 2206.84 1668.75 2083.58 1737.92 1927.59 1694.07 1858.42 1570.81Z" fill="#2E4434" fill-rule="evenodd" fill-opacity="1"/><path d="M2537.54 553.329 2708.36 635.563C2719.28 640.823 2723.88 653.943 2718.62 664.869L2680.52 743.995C2675.27 754.921 2662.14 759.513 2651.22 754.254L2612.34 735.536 2553.47 857.812C2549.35 866.378 2539.06 869.979 2530.5 865.855L2468.46 835.99C2459.89 831.867 2456.29 821.58 2460.42 813.014L2519.28 690.738 2480.4 672.02C2469.47 666.761 2464.88 653.64 2470.14 642.715L2508.23 563.588C2513.49 552.663 2526.61 548.07 2537.54 553.329Z" fill="#2E4434" fill-rule="evenodd" fill-opacity="1"/><path d="M1588.76 675.11 1822.19 544.123C1837.11 535.745 1856.01 541.056 1864.39 555.986L1925.06 664.113C1933.44 679.042 1928.13 697.937 1913.2 706.315L1860.07 736.129 1953.83 903.22C1960.4 914.925 1956.23 929.739 1944.53 936.307L1859.76 983.878C1848.05 990.446 1833.24 986.282 1826.67 974.577L1732.91 807.486 1679.77 837.301C1664.84 845.679 1645.95 840.368 1637.57 825.438L1576.9 717.311C1568.52 702.382 1573.83 683.487 1588.76 675.11Z" fill="#56805F" fill-rule="evenodd" fill-opacity="1"/><path d="M1062.1 1512.54 1120.54 1188.4C1124.28 1167.67 1144.11 1153.89 1164.85 1157.63L1314.99 1184.7C1335.72 1188.44 1349.5 1208.28 1345.76 1229.01L1332.46 1302.79 1564.48 1344.63C1580.74 1347.56 1591.54 1363.11 1588.61 1379.36L1567.38 1497.08C1564.45 1513.33 1548.9 1524.13 1532.64 1521.2L1300.62 1479.37 1287.32 1553.15C1283.58 1573.88 1263.74 1587.66 1243.01 1583.92L1092.87 1556.85C1072.13 1553.11 1058.36 1533.27 1062.1 1512.54Z" fill="#56805F" fill-rule="evenodd" fill-opacity="1"/><path d="M3303.18 1561.43 3248.36 1823.42C3244.85 1840.18 3228.42 1850.92 3211.67 1847.41L3090.31 1822.02C3073.55 1818.51 3062.81 1802.08 3066.32 1785.33L3078.79 1725.69 2891.25 1686.45C2878.12 1683.7 2869.69 1670.83 2872.44 1657.69L2892.35 1562.54C2895.1 1549.4 2907.98 1540.98 2921.12 1543.73L3108.66 1582.97 3121.14 1523.34C3124.64 1506.58 3141.07 1495.84 3157.83 1499.34L3279.18 1524.74C3295.94 1528.24 3306.68 1544.67 3303.18 1561.43Z" fill="#2E4434" fill-rule="evenodd" fill-opacity="1"/><path d="M2024.01 2522.07 1731.9 2420.31C1713.21 2413.81 1703.34 2393.38 1709.85 2374.7L1756.99 2239.39C1763.5 2220.7 1783.92 2210.84 1802.6 2217.34L1869.09 2240.51 1941.93 2031.4C1947.04 2016.76 1963.05 2009.02 1977.7 2014.12L2083.78 2051.08C2098.43 2056.18 2106.17 2072.19 2101.07 2086.84L2028.23 2295.94 2094.72 2319.1C2113.4 2325.61 2123.27 2346.03 2116.76 2364.72L2069.62 2500.03C2063.12 2518.71 2042.69 2528.58 2024.01 2522.07Z" fill="#56805F" fill-rule="evenodd" fill-opacity="1"/><path d="M2935.27 2029.39 2749.21 2242.26C2737.31 2255.87 2718.12 2258.56 2706.35 2248.27L2621.08 2173.75C2609.31 2163.46 2609.42 2144.08 2621.32 2130.46L2663.67 2082.01 2531.91 1966.84C2522.68 1958.78 2522.76 1943.58 2532.09 1932.91L2599.66 1855.6C2608.99 1844.93 2624.03 1842.82 2633.26 1850.89L2765.02 1966.05 2807.38 1917.6C2819.27 1903.99 2838.47 1901.29 2850.24 1911.58L2935.5 1986.11C2947.27 1996.4 2947.17 2015.78 2935.27 2029.39Z" fill="#56805F" fill-rule="evenodd" fill-opacity="1"/><path d="M1978.48 1503.44C1947.77 1448.71 1967.24 1379.45 2021.96 1348.74 2076.69 1318.03 2145.95 1337.5 2176.66 1392.23 2207.37 1446.95 2187.9 1516.22 2133.17 1546.93 2078.45 1577.64 2009.19 1558.17 1978.48 1503.44Z" fill="#56805F" fill-rule="evenodd" fill-opacity="1"/><path d="M1901.21 855.209 1924.21 843.587C2133.74 750.283 2388.17 759.136 2604.51 889.283 2950.64 1097.52 3068.15 1537.41 2866.97 1871.82 2665.79 2206.22 2222.11 2308.5 1875.97 2100.26 1681.28 1983.13 1558.91 1792.7 1524.92 1588.97L1522.96 1572.3 1530.87 1606.86C1576.8 1770.91 1686.22 1921.12 1848.25 2018.6 2172.32 2213.57 2584.13 2123.78 2768.05 1818.06 2951.98 1512.34 2838.36 1106.46 2514.29 911.495 2332 801.828 2121.95 782.258 1940.32 840.537Z" fill="#56805F" fill-rule="evenodd" fill-opacity="1"/><path d="M2083.07 1462.9 2263.96 1086.22 2350.43 1196.92 2894.93 771.571 3176.42 373.439 3262.89 484.135 3162.91 562.232C3171.39 555.609 3182.85 556.11 3188.51 563.352L3229.48 615.799C3235.14 623.041 3232.85 634.28 3224.37 640.904L3324.35 562.806 3411.23 674.035 2956.39 850.242 2411.88 1275.59 2492.33 1378.57Z" stroke="#262626" stroke-width="20.625" stroke-linecap="butt" stroke-linejoin="miter" stroke-miterlimit="8" stroke-opacity="1" fill="#B85348" fill-rule="evenodd" fill-opacity="1"/><path d="M2926.5 623.5C2926.5 482.667 3040.67 368.5 3181.5 368.5 3322.33 368.5 3436.5 482.667 3436.5 623.5 3436.5 764.333 3322.33 878.5 3181.5 878.5 3040.67 878.5 2926.5 764.333 2926.5 623.5Z" stroke="#262626" stroke-width="20.625" stroke-linecap="butt" stroke-linejoin="miter" stroke-miterlimit="8" stroke-opacity="1" fill="#D9D9D9" fill-rule="evenodd" fill-opacity="1"/><path d="M3173.32 580.096 3171.92 482.204 3192.55 481.91 3193.95 579.801ZM3151.45 492.81 3181.5 430.5 3213.32 491.927Z" fill="#262626" fill-rule="nonzero" fill-opacity="1"/><path d="M3220.86 645.277 3332.94 759.488 3318.22 773.934 3206.14 659.723ZM3340.44 737.681 3361.7 803.513 3296.28 781.02Z" fill="#262626" fill-rule="nonzero" fill-opacity="1"/><path d="M3141.5 622.5C3141.5 599.304 3160.3 580.5 3183.5 580.5 3206.7 580.5 3225.5 599.304 3225.5 622.5 3225.5 645.696 3206.7 664.5 3183.5 664.5 3160.3 664.5 3141.5 645.696 3141.5 622.5Z" stroke="#262626" stroke-width="6.875" stroke-linecap="butt" stroke-linejoin="miter" stroke-miterlimit="8" stroke-opacity="1" fill="#B85348" fill-rule="evenodd" fill-opacity="1"/></g></g></svg>